<svg width="64" height="64" viewBox="0 0 64 64" fill="none" xmlns="http://www.w3.org/2000/svg">
<path d="M49.1133 11.4467L41.8533 2.79333L33.0133 10.2067L22.36 19.1467L18.0667 22.7467L49.1133 11.4467Z" fill="#62B28A"/>
<path d="M30.6667 18.1533L37.44 12.4733C37.9205 13.0491 38.5253 13.5084 39.2089 13.8167C39.8925 14.125 40.6371 14.2743 41.3867 14.2533L30.6667 18.1533Z" fill="#62B28A"/>
<path d="M7.90002 26.4467L31.8 17.7467L44.8667 12.9933L55.7067 9.04666L61.3734 24.6L62.04 26.4467H7.90002Z" fill="#62B28A"/>
<path d="M21.3333 26.4467L48.2666 16.6667C48.7259 17.9055 49.6568 18.9123 50.856 19.4669C52.0552 20.0216 53.4252 20.079 54.6666 19.6267L57.1533 26.4467H21.3333Z" fill="#75BE9A"/>
<path d="M62.8267 26.4467H1.17334V61.2067H62.8267V26.4467Z" fill="#4DA67F"/>
<path d="M60.3067 26.4467H6.19334C4.80158 26.4467 3.67334 27.5749 3.67334 28.9667V56.1467C3.67334 57.5384 4.80158 58.6667 6.19334 58.6667H60.3067C61.6984 58.6667 62.8267 57.5384 62.8267 56.1467V28.9667C62.8267 27.5749 61.6984 26.4467 60.3067 26.4467Z" fill="#62B28A"/>
<path d="M53.1533 55.96H11.5066C11.5049 54.6115 10.9684 53.3187 10.0149 52.3651C9.0613 51.4116 7.76851 50.8751 6.41998 50.8733V36.12C7.76905 36.12 9.06286 35.5841 10.0168 34.6301C10.9707 33.6762 11.5066 32.3824 11.5066 31.0333H53.1533C53.1524 31.701 53.2832 32.3623 53.5381 32.9794C53.793 33.5965 54.167 34.1573 54.6389 34.6297C55.1107 35.1022 55.671 35.477 56.2877 35.7327C56.9045 35.9884 57.5656 36.12 58.2333 36.12V50.8733C56.8854 50.8751 55.5933 51.4118 54.6408 52.3655C53.6883 53.3193 53.1533 54.6121 53.1533 55.96Z" fill="#75BE9A"/>
<path d="M32 52.7267C37.0626 52.7267 41.1666 48.551 41.1666 43.4C41.1666 38.249 37.0626 34.0733 32 34.0733C26.9374 34.0733 22.8333 38.249 22.8333 43.4C22.8333 48.551 26.9374 52.7267 32 52.7267Z" fill="#85CBA9"/>
<path d="M62.8266 25.7867H62.5L56.3266 8.82001C56.2651 8.65823 56.143 8.52673 55.9863 8.45332C55.8295 8.37992 55.6503 8.37036 55.4866 8.42668L49.3333 10.6667L42.3533 2.37335C42.2397 2.24191 42.0793 2.15999 41.9062 2.14505C41.7332 2.13011 41.5611 2.18332 41.4267 2.29335L17.74 22.1667L7.78665 25.7867H1.17332C0.996508 25.7867 0.826939 25.8569 0.701915 25.9819C0.576891 26.107 0.506653 26.2765 0.506653 26.4533V61.2067C0.506653 61.3835 0.576891 61.5531 0.701915 61.6781C0.826939 61.8031 0.996508 61.8733 1.17332 61.8733H62.8266C63.0035 61.8733 63.173 61.8031 63.298 61.6781C63.4231 61.5531 63.4933 61.3835 63.4933 61.2067V26.4467C63.4916 26.271 63.4205 26.1032 63.2957 25.9796C63.1709 25.856 63.0023 25.7867 62.8266 25.7867ZM41.7733 3.72002L48 11.1467L41.2933 13.5933C40.6585 13.5986 40.0303 13.4633 39.454 13.197C38.8777 12.9308 38.3675 12.5402 37.96 12.0533C37.8427 11.9258 37.6804 11.8489 37.5075 11.8389C37.3345 11.829 37.1644 11.8867 37.0333 12L30.3667 17.6L21.3333 20.8533L41.7733 3.72002ZM39.0066 14.4267L34 16.26L37.44 13.3733C37.8977 13.812 38.4277 14.1684 39.0066 14.4267ZM18.2867 23.3667L30.8867 18.78L55.3333 9.88668L61.1133 25.7867H57.62L55.2933 19.4067C55.2318 19.2433 55.1086 19.1106 54.9503 19.0371C54.792 18.9635 54.6112 18.955 54.4466 19.0133C53.9097 19.2141 53.3378 19.3046 52.7651 19.2794C52.1923 19.2542 51.6306 19.1138 51.1133 18.8667C50.5938 18.6275 50.1271 18.2875 49.7403 17.8663C49.3534 17.4451 49.0542 16.9512 48.86 16.4133C48.8023 16.2525 48.6851 16.1199 48.5325 16.043C48.3799 15.9661 48.2036 15.9507 48.04 16L21.2133 25.7867H11.62L18.2867 23.3667ZM56.22 25.7867H25.0467L47.9067 17.4667C48.4766 18.6062 49.4152 19.5194 50.5698 20.058C51.7245 20.5966 53.0273 20.7289 54.2666 20.4333L56.22 25.7867ZM62.1733 60.5533H1.82665V27.1H62.1733V60.5533Z" fill="#39426A"/>
<path d="M53.8933 31.0333C53.8933 30.8565 53.8231 30.687 53.6981 30.5619C53.573 30.4369 53.4035 30.3667 53.2267 30.3667H11.42C11.2432 30.3667 11.0736 30.4369 10.9486 30.5619C10.8236 30.687 10.7533 30.8565 10.7533 31.0333C10.7516 32.1856 10.293 33.2902 9.47827 34.1049C8.66349 34.9197 7.55892 35.3782 6.40666 35.38C6.22985 35.38 6.06028 35.4502 5.93525 35.5753C5.81023 35.7003 5.73999 35.8699 5.73999 36.0467V50.96C5.73999 51.1368 5.81023 51.3064 5.93525 51.4314C6.06028 51.5564 6.22985 51.6267 6.40666 51.6267C7.55892 51.6284 8.66349 52.0869 9.47827 52.9017C10.293 53.7165 10.7516 54.8211 10.7533 55.9733C10.7533 56.1501 10.8236 56.3197 10.9486 56.4447C11.0736 56.5698 11.2432 56.64 11.42 56.64H53.2333C53.4101 56.64 53.5797 56.5698 53.7047 56.4447C53.8298 56.3197 53.9 56.1501 53.9 55.9733C53.9017 54.8222 54.3593 53.7187 55.1727 52.9041C55.986 52.0895 57.0889 51.6302 58.24 51.6267C58.4168 51.6267 58.5864 51.5564 58.7114 51.4314C58.8364 51.3064 58.9067 51.1368 58.9067 50.96V36.0333C58.9067 35.8565 58.8364 35.687 58.7114 35.5619C58.5864 35.4369 58.4168 35.3667 58.24 35.3667C57.0895 35.3667 55.9859 34.9106 55.1711 34.0983C54.3564 33.286 53.8969 32.1838 53.8933 31.0333ZM57.58 50.3667C56.3159 50.5179 55.1393 51.09 54.2397 51.9909C53.34 52.8917 52.7696 54.069 52.62 55.3333H12.04C11.8901 54.068 11.3187 52.8899 10.4177 51.989C9.51671 51.088 8.33866 50.5165 7.07332 50.3667V36.6667C8.3381 36.5182 9.51601 35.9481 10.4171 35.0483C11.3182 34.1484 11.8899 32.9712 12.04 31.7067H52.62C52.7698 32.9702 53.3406 34.1466 54.2403 35.0464C55.14 35.9461 56.3164 36.5168 57.58 36.6667V50.3667Z" fill="#39426A"/>
<path d="M32 33.66C30.0538 33.66 28.1513 34.2371 26.5332 35.3183C24.915 36.3996 23.6538 37.9364 22.909 39.7344C22.1642 41.5324 21.9694 43.5109 22.3491 45.4197C22.7287 47.3285 23.6659 49.0818 25.042 50.4579C26.4182 51.8341 28.1715 52.7712 30.0803 53.1509C31.9891 53.5306 33.9676 53.3357 35.7656 52.591C37.5636 51.8462 39.1004 50.585 40.1816 48.9668C41.2629 47.3486 41.84 45.4462 41.84 43.5C41.8365 40.8914 40.7986 38.3906 38.954 36.546C37.1094 34.7014 34.6086 33.6635 32 33.66ZM32 52C30.3124 52 28.6628 51.4992 27.2601 50.5611C25.8573 49.623 24.7644 48.2898 24.1198 46.7302C23.4753 45.1706 23.308 43.4548 23.6392 41.8C23.9703 40.1453 24.7851 38.626 25.9802 37.4346C27.1754 36.2432 28.6972 35.4333 30.3529 35.1073C32.0087 34.7813 33.7239 34.9539 35.2815 35.6034C36.8391 36.2529 38.1689 37.3499 39.1026 38.7556C40.0363 40.1613 40.5319 41.8125 40.5266 43.5C40.5161 45.7557 39.6135 47.9156 38.016 49.5082C36.4184 51.1007 34.2557 51.9965 32 52Z" fill="#39426A"/>
<path d="M31.18 40.8733H34.6267C34.8035 40.8733 34.973 40.8031 35.0981 40.6781C35.2231 40.5531 35.2933 40.3835 35.2933 40.2067C35.2933 40.0299 35.2231 39.8603 35.0981 39.7353C34.973 39.6102 34.8035 39.54 34.6267 39.54H32.6667V38.2067C32.6667 38.0299 32.5964 37.8603 32.4714 37.7353C32.3464 37.6102 32.1768 37.54 32 37.54C31.8232 37.54 31.6536 37.6102 31.5286 37.7353C31.4036 37.8603 31.3333 38.0299 31.3333 38.2067V39.54H31.1667C30.5789 39.5717 30.0257 39.8275 29.6209 40.2547C29.2161 40.6819 28.9904 41.2481 28.9904 41.8367C28.9904 42.4252 29.2161 42.9914 29.6209 43.4187C30.0257 43.8459 30.5789 44.1017 31.1667 44.1333H32.8067C33.0719 44.1333 33.3262 44.2387 33.5138 44.4262C33.7013 44.6138 33.8067 44.8681 33.8067 45.1333C33.8067 45.3986 33.7013 45.6529 33.5138 45.8404C33.3262 46.028 33.0719 46.1333 32.8067 46.1333H29.3733C29.1965 46.1333 29.027 46.2036 28.9019 46.3286C28.7769 46.4536 28.7067 46.6232 28.7067 46.8C28.7067 46.9768 28.7769 47.1464 28.9019 47.2714C29.027 47.3964 29.1965 47.4667 29.3733 47.4667H31.3733V48.8C31.3733 48.9768 31.4436 49.1464 31.5686 49.2714C31.6936 49.3964 31.8632 49.4667 32.04 49.4667C32.2168 49.4667 32.3864 49.3964 32.5114 49.2714C32.6364 49.1464 32.7067 48.9768 32.7067 48.8V47.4667H32.8733C33.461 47.435 34.0143 47.1792 34.4191 46.752C34.8239 46.3248 35.0495 45.7586 35.0495 45.17C35.0495 44.5814 34.8239 44.0153 34.4191 43.588C34.0143 43.1608 33.461 42.905 32.8733 42.8733H31.18C30.9148 42.8733 30.6604 42.768 30.4729 42.5804C30.2854 42.3929 30.18 42.1386 30.18 41.8733C30.18 41.6081 30.2854 41.3538 30.4729 41.1662C30.6604 40.9787 30.9148 40.8733 31.18 40.8733Z" fill="#F3F4F5"/>
</svg>
