<svg width="64" height="64" viewBox="0 0 64 64" fill="none" xmlns="http://www.w3.org/2000/svg">
<g clip-path="url(#clip0)">
<path d="M59.6886 10.3655V27.183C59.4605 27.216 59.2305 27.2327 59.0001 27.233C58.0646 27.2322 57.1479 26.9706 56.3529 26.4774C55.558 25.9843 54.9163 25.2793 54.5001 24.4415C54.0848 25.2802 53.4434 25.9861 52.6483 26.4796C51.8531 26.9731 50.9359 27.2347 50.0001 27.2347C49.0642 27.2347 48.147 26.9731 47.3519 26.4796C46.5567 25.9861 45.9154 25.2802 45.5001 24.4415C45.0839 25.2797 44.4421 25.9851 43.6467 26.4782C42.8514 26.9713 41.9341 27.2326 40.9983 27.2326C40.0625 27.2326 39.1453 26.9713 38.3499 26.4782C37.5546 25.9851 36.9127 25.2797 36.4966 24.4415C36.0813 25.2802 35.4399 25.9861 34.6448 26.4796C33.8496 26.9731 32.9324 27.2347 31.9966 27.2347C31.0607 27.2347 30.1435 26.9731 29.3484 26.4796C28.5532 25.9861 27.9119 25.2802 27.4966 24.4415C27.0813 25.2802 26.4399 25.9861 25.6448 26.4796C24.8496 26.9731 23.9324 27.2347 22.9966 27.2347C22.0607 27.2347 21.1435 26.9731 20.3484 26.4796C19.5532 25.9861 18.9119 25.2802 18.4966 24.4415C18.0804 25.2797 17.4386 25.9851 16.6432 26.4782C15.8479 26.9713 14.9306 27.2326 13.9948 27.2326C13.059 27.2326 12.1418 26.9713 11.3464 26.4782C10.5511 25.9851 9.9092 25.2797 9.49307 24.4415C9.0768 25.2793 8.43515 25.9843 7.6402 26.4774C6.84526 26.9706 5.92854 27.2322 4.99307 27.233C4.76267 27.2327 4.53259 27.216 4.30457 27.183V10.3655H59.6886Z" fill="#D9E2E9"/>
<path d="M59.6895 54.129H4.31049C4.17788 54.129 4.0507 54.0763 3.95693 53.9825C3.86316 53.8888 3.81049 53.7616 3.81049 53.629V11.179C3.81049 11.0464 3.86316 10.9192 3.95693 10.8254C4.0507 10.7317 4.17788 10.679 4.31049 10.679H59.6895C59.8221 10.679 59.9493 10.7317 60.043 10.8254C60.1368 10.9192 60.1895 11.0464 60.1895 11.179V53.629C60.1895 53.7616 60.1368 53.8888 60.043 53.9825C59.9493 54.0763 59.8221 54.129 59.6895 54.129ZM4.80999 53.129H59.1895V11.679H4.81049L4.80999 53.129Z" fill="#2F3A5A"/>
<path d="M12.166 31.8175H25.3885V54.557H12.166V31.8175Z" fill="#E1B378"/>
<path d="M25.3884 55.057H12.1664C12.0338 55.057 11.9067 55.0043 11.8129 54.9106C11.7191 54.8168 11.6664 54.6896 11.6664 54.557V31.8175C11.6664 31.6849 11.7191 31.5577 11.8129 31.464C11.9067 31.3702 12.0338 31.3175 12.1664 31.3175H25.3884C25.5211 31.3175 25.6482 31.3702 25.742 31.464C25.8358 31.5577 25.8884 31.6849 25.8884 31.8175V54.557C25.8884 54.6896 25.8358 54.8168 25.742 54.9106C25.6482 55.0043 25.5211 55.057 25.3884 55.057ZM12.6659 54.057H24.8884V32.3175H12.6664L12.6659 54.057Z" fill="#2F3A5A"/>
<path d="M30.895 31.8185H55.131V46.8425H30.895V31.8185Z" fill="#81DAFC"/>
<path d="M18.5 15.9335H9.5L12.714 7.548H20.4285L18.5 15.9335Z" fill="#FFC943"/>
<path d="M18.5 16.4335H9.49996C9.41884 16.4335 9.33894 16.4138 9.26715 16.3761C9.19535 16.3383 9.13381 16.2837 9.08785 16.2168C9.04188 16.15 9.01287 16.073 9.0033 15.9925C8.99374 15.9119 9.00392 15.8302 9.03296 15.7545L12.25 7.369C12.2862 7.27453 12.3502 7.19327 12.4336 7.13596C12.517 7.07864 12.6158 7.04798 12.717 7.048H20.4285C20.5037 7.04797 20.5779 7.0649 20.6456 7.09754C20.7134 7.13017 20.7729 7.17766 20.8198 7.23648C20.8666 7.29529 20.8996 7.36392 20.9162 7.43725C20.9329 7.51058 20.9328 7.58672 20.916 7.66L18.9875 16.0455C18.9621 16.1558 18.9001 16.2542 18.8115 16.3247C18.723 16.3952 18.6131 16.4336 18.5 16.4335V16.4335ZM10.227 15.4335H18.1L19.8 8.05H13.058L10.227 15.4335Z" fill="#2F3A5A"/>
<path d="M27.5 15.9335H18.5L20.4285 7.548H28.143L27.5 15.9335Z" fill="#81DAFC"/>
<path d="M27.5 16.4335H18.5C18.4248 16.4335 18.3506 16.4166 18.2828 16.384C18.2151 16.3513 18.1556 16.3039 18.1087 16.245C18.0619 16.1862 18.0289 16.1176 18.0122 16.0443C17.9956 15.9709 17.9957 15.8948 18.0125 15.8215L19.941 7.43601C19.9664 7.32571 20.0284 7.22727 20.117 7.15679C20.2055 7.08631 20.3153 7.04796 20.4285 7.04801H28.143C28.2121 7.0478 28.2804 7.06189 28.3437 7.08939C28.407 7.11689 28.464 7.1572 28.5109 7.20779C28.5579 7.25838 28.5939 7.31814 28.6166 7.38332C28.6394 7.4485 28.6483 7.51768 28.643 7.58651L28 15.972C27.9903 16.0978 27.9334 16.2153 27.8406 16.3009C27.7479 16.3865 27.6262 16.4339 27.5 16.4335ZM19.128 15.4335H27.037L27.603 8.05001H20.8265L19.128 15.4335Z" fill="#2F3A5A"/>
<path d="M36.5 15.9335H27.5L28.143 7.548H35.857L36.5 15.9335Z" fill="#FFC943"/>
<path d="M36.5 16.4335H27.5C27.4309 16.4337 27.3626 16.4196 27.2993 16.3921C27.236 16.3646 27.179 16.3243 27.1321 16.2737C27.0851 16.2231 27.0491 16.1634 27.0264 16.0982C27.0036 16.033 26.9946 15.9638 27 15.895L27.6445 7.50999C27.6542 7.38417 27.7111 7.26667 27.8039 7.18108C27.8966 7.09548 28.0183 7.04812 28.1445 7.04849H35.857C35.9832 7.04812 36.1049 7.09548 36.1976 7.18108C36.2903 7.26667 36.3473 7.38417 36.357 7.50999L37 15.8955C37.0053 15.9643 36.9963 16.0335 36.9736 16.0987C36.9508 16.1639 36.9148 16.2236 36.8679 16.2742C36.8209 16.3248 36.764 16.3651 36.7007 16.3926C36.6373 16.4201 36.569 16.4342 36.5 16.434V16.4335ZM28.04 15.4335H35.96L35.394 8.04999H28.606L28.04 15.4335Z" fill="#2F3A5A"/>
<path d="M45.5001 15.9335H36.5001L35.8571 7.548H43.5716L45.5001 15.9335Z" fill="#81DAFC"/>
<path d="M45.5 16.4335H36.5C36.3738 16.4339 36.2521 16.3865 36.1594 16.3009C36.0666 16.2153 36.0097 16.0978 36 15.972L35.3585 7.58651C35.3532 7.51768 35.3622 7.4485 35.3849 7.38332C35.4076 7.31814 35.4436 7.25838 35.4906 7.20779C35.5376 7.1572 35.5945 7.11689 35.6578 7.08939C35.7211 7.06189 35.7894 7.0478 35.8585 7.04801H43.5715C43.6847 7.04796 43.7945 7.08631 43.883 7.15679C43.9716 7.22727 44.0336 7.32571 44.059 7.43601L45.9875 15.8215C46.0043 15.8948 46.0044 15.9709 45.9878 16.0443C45.9711 16.1176 45.9381 16.1862 45.8913 16.245C45.8444 16.3039 45.7849 16.3513 45.7172 16.384C45.6494 16.4166 45.5752 16.4335 45.5 16.4335V16.4335ZM36.963 15.4335H44.872L43.1735 8.05001H36.397L36.963 15.4335Z" fill="#2F3A5A"/>
<path d="M54.4999 15.9335H45.4999L43.5714 7.548H51.2859L54.4999 15.9335Z" fill="#FFC943"/>
<path d="M54.5 16.4335H45.5C45.3868 16.4336 45.277 16.3952 45.1884 16.3247C45.0999 16.2542 45.0379 16.1558 45.0125 16.0455L43.084 7.66C43.0671 7.58672 43.0671 7.51058 43.0837 7.43725C43.1004 7.36392 43.1333 7.29529 43.1802 7.23648C43.2271 7.17766 43.2866 7.13017 43.3543 7.09754C43.4221 7.0649 43.4963 7.04797 43.5715 7.048H51.286C51.3872 7.04798 51.486 7.07864 51.5694 7.13596C51.6528 7.19327 51.7168 7.27453 51.753 7.369L54.967 15.7545C54.9961 15.8302 55.0062 15.9119 54.9967 15.9925C54.9871 16.073 54.9581 16.15 54.9121 16.2168C54.8662 16.2837 54.8046 16.3383 54.7328 16.3761C54.661 16.4138 54.5811 16.4335 54.5 16.4335V16.4335ZM45.9 15.4335H53.775L50.942 8.05H44.2L45.9 15.4335Z" fill="#2F3A5A"/>
<path d="M4.5315 8.42102L0.5 15.9335H9.5L12.7145 7.55002H5.9905C5.69131 7.54986 5.39766 7.63076 5.14077 7.78412C4.88387 7.93748 4.67333 8.15758 4.5315 8.42102V8.42102Z" fill="#81DAFC"/>
<path d="M9.50021 16.4335H0.500213C0.413757 16.4335 0.32878 16.4111 0.253577 16.3684C0.178374 16.3258 0.115516 16.2643 0.0711383 16.1901C0.0267608 16.1159 0.00238079 16.0315 0.000378305 15.9451C-0.00162418 15.8586 0.0188193 15.7732 0.059713 15.697L4.09121 8.18499C4.27527 7.84122 4.54925 7.55391 4.88389 7.35374C5.21854 7.15357 5.60127 7.04806 5.99121 7.04849H12.7147C12.7958 7.04847 12.8757 7.06818 12.9475 7.10593C13.0193 7.14367 13.0809 7.19832 13.1268 7.26515C13.1728 7.33198 13.2018 7.409 13.2114 7.48954C13.2209 7.57009 13.2108 7.65176 13.1817 7.72749L9.96671 16.1125C9.93052 16.2069 9.86657 16.2881 9.78329 16.3454C9.7 16.4027 9.60131 16.4334 9.50021 16.4335V16.4335ZM1.33621 15.4335H9.15621L11.9877 8.04999H5.99071C5.78165 8.04975 5.57645 8.10633 5.39705 8.21369C5.21766 8.32105 5.07081 8.47514 4.97221 8.65949L1.33621 15.4335Z" fill="#2F3A5A"/>
<path d="M59.4685 8.421C59.3269 8.15719 59.1165 7.93669 58.8596 7.78297C58.6027 7.62924 58.3089 7.54804 58.0095 7.548H51.286L54.5 15.9335H63.5L59.4685 8.421Z" fill="#81DAFC"/>
<path d="M63.5 16.4335H54.5C54.3988 16.4335 54.3 16.4029 54.2167 16.3456C54.1333 16.2882 54.0692 16.207 54.033 16.1125L50.819 7.72701C50.79 7.65127 50.7798 7.5696 50.7894 7.48906C50.7989 7.40851 50.828 7.3315 50.8739 7.26466C50.9199 7.19783 50.9814 7.14319 51.0532 7.10544C51.125 7.06769 51.2049 7.04798 51.286 7.04801H58.0095C58.3994 7.04763 58.7822 7.15316 59.1168 7.35332C59.4514 7.55349 59.7254 7.84077 59.9095 8.18451L63.941 15.697C63.9819 15.7732 64.0024 15.8587 64.0003 15.9452C63.9983 16.0317 63.9739 16.1162 63.9294 16.1904C63.885 16.2646 63.8221 16.326 63.7468 16.3686C63.6715 16.4112 63.5865 16.4336 63.5 16.4335V16.4335ZM54.844 15.4335H62.6645L59.028 8.65751C58.9294 8.47319 58.7825 8.31912 58.6031 8.21177C58.4237 8.10442 58.2186 8.04782 58.0095 8.04801H52.013L54.844 15.4335Z" fill="#2F3A5A"/>
<path d="M0.5 15.9335V19.1535C0.5 20.347 0.974106 21.4916 1.81802 22.3355C2.66193 23.1794 3.80653 23.6535 5 23.6535C6.19347 23.6535 7.33807 23.1794 8.18198 22.3355C9.02589 21.4916 9.5 20.347 9.5 19.1535V15.9335H0.5Z" fill="#3DBCE9"/>
<path d="M5 24.154C3.6744 24.1524 2.40356 23.6251 1.46622 22.6878C0.528882 21.7505 0.00158786 20.4796 0 19.154L0 15.934C0 15.8014 0.0526784 15.6742 0.146447 15.5805C0.240215 15.4867 0.367392 15.434 0.5 15.434H9.5C9.63261 15.434 9.75979 15.4867 9.85355 15.5805C9.94732 15.6742 10 15.8014 10 15.934V19.154C9.99854 20.4797 9.47129 21.7506 8.53393 22.6879C7.59656 23.6253 6.32564 24.1526 5 24.154ZM1 16.4335V19.1535C1 20.2144 1.42143 21.2318 2.17157 21.9819C2.92172 22.7321 3.93913 23.1535 5 23.1535C6.06087 23.1535 7.07828 22.7321 7.82843 21.9819C8.57857 21.2318 9 20.2144 9 19.1535V16.4335H1Z" fill="#2F3A5A"/>
<path d="M9.5 15.9335V19.1535C9.5 19.7444 9.6164 20.3296 9.84254 20.8756C10.0687 21.4215 10.4002 21.9176 10.818 22.3355C11.2359 22.7533 11.732 23.0848 12.2779 23.311C12.8239 23.5371 13.4091 23.6535 14 23.6535C14.5909 23.6535 15.1761 23.5371 15.7221 23.311C16.268 23.0848 16.7641 22.7533 17.182 22.3355C17.5998 21.9176 17.9313 21.4215 18.1575 20.8756C18.3836 20.3296 18.5 19.7444 18.5 19.1535V15.9335H9.5Z" fill="#F7B521"/>
<path d="M14 24.154C12.6744 24.1524 11.4036 23.6251 10.4662 22.6878C9.52888 21.7505 9.00159 20.4796 9 19.154V15.934C9 15.8014 9.05268 15.6742 9.14645 15.5805C9.24021 15.4867 9.36739 15.434 9.5 15.434H18.5C18.6326 15.434 18.7598 15.4867 18.8536 15.5805C18.9473 15.6742 19 15.8014 19 15.934V19.154C18.9984 20.4796 18.4711 21.7505 17.5338 22.6878C16.5964 23.6251 15.3256 24.1524 14 24.154ZM10 16.4335V19.1535C10 20.2144 10.4214 21.2318 11.1716 21.9819C11.9217 22.7321 12.9391 23.1535 14 23.1535C15.0609 23.1535 16.0783 22.7321 16.8284 21.9819C17.5786 21.2318 18 20.2144 18 19.1535V16.4335H10Z" fill="#2F3A5A"/>
<path d="M18.5 15.9335V19.1535C18.5 20.347 18.9741 21.4916 19.818 22.3355C20.6619 23.1794 21.8065 23.6535 23 23.6535C24.1935 23.6535 25.3381 23.1794 26.182 22.3355C27.0259 21.4916 27.5 20.347 27.5 19.1535V15.9335H18.5Z" fill="#3DBCE9"/>
<path d="M23 24.154C21.6744 24.1526 20.4034 23.6253 19.4661 22.6879C18.5287 21.7506 18.0015 20.4797 18 19.154V15.934C18 15.8014 18.0527 15.6742 18.1464 15.5805C18.2402 15.4867 18.3674 15.434 18.5 15.434H27.5C27.6326 15.434 27.7598 15.4867 27.8536 15.5805C27.9473 15.6742 28 15.8014 28 15.934V19.154C27.9984 20.4796 27.4711 21.7505 26.5338 22.6878C25.5964 23.6251 24.3256 24.1524 23 24.154ZM19 16.4335V19.1535C19 20.2144 19.4214 21.2318 20.1716 21.9819C20.9217 22.7321 21.9391 23.1535 23 23.1535C24.0609 23.1535 25.0783 22.7321 25.8284 21.9819C26.5786 21.2318 27 20.2144 27 19.1535V16.4335H19Z" fill="#2F3A5A"/>
<path d="M27.5 15.9335V19.1535C27.5 20.347 27.9741 21.4916 28.818 22.3355C29.6619 23.1794 30.8065 23.6535 32 23.6535C33.1935 23.6535 34.3381 23.1794 35.182 22.3355C36.0259 21.4916 36.5 20.347 36.5 19.1535V15.9335H27.5Z" fill="#F7B521"/>
<path d="M32 24.154C30.6744 24.1526 29.4034 23.6253 28.4661 22.6879C27.5287 21.7506 27.0015 20.4797 27 19.154V15.934C27 15.8014 27.0527 15.6742 27.1464 15.5805C27.2402 15.4867 27.3674 15.434 27.5 15.434H36.5C36.6326 15.434 36.7598 15.4867 36.8536 15.5805C36.9473 15.6742 37 15.8014 37 15.934V19.154C36.9984 20.4796 36.4711 21.7505 35.5338 22.6878C34.5964 23.6251 33.3256 24.1524 32 24.154V24.154ZM28 16.4335V19.1535C28 20.2144 28.4214 21.2318 29.1716 21.9819C29.9217 22.7321 30.9391 23.1535 32 23.1535C33.0609 23.1535 34.0783 22.7321 34.8284 21.9819C35.5786 21.2318 36 20.2144 36 19.1535V16.4335H28Z" fill="#2F3A5A"/>
<path d="M36.5 15.9335V19.1535C36.5 20.347 36.9741 21.4916 37.818 22.3355C38.6619 23.1794 39.8065 23.6535 41 23.6535C42.1935 23.6535 43.3381 23.1794 44.182 22.3355C45.0259 21.4916 45.5 20.347 45.5 19.1535V15.9335H36.5Z" fill="#3DBCE9"/>
<path d="M41 24.154C39.6744 24.1524 38.4036 23.6251 37.4662 22.6878C36.5289 21.7505 36.0016 20.4796 36 19.154V15.934C36 15.8014 36.0527 15.6742 36.1464 15.5805C36.2402 15.4867 36.3674 15.434 36.5 15.434H45.5C45.6326 15.434 45.7598 15.4867 45.8536 15.5805C45.9473 15.6742 46 15.8014 46 15.934V19.154C45.9984 20.4796 45.4711 21.7505 44.5338 22.6878C43.5964 23.6251 42.3256 24.1524 41 24.154ZM37 16.4335V19.1535C37 20.2144 37.4214 21.2318 38.1716 21.9819C38.9217 22.7321 39.9391 23.1535 41 23.1535C42.0609 23.1535 43.0783 22.7321 43.8284 21.9819C44.5786 21.2318 45 20.2144 45 19.1535V16.4335H37Z" fill="#2F3A5A"/>
<path d="M45.5 15.9335V19.1535C45.5 20.347 45.9741 21.4916 46.818 22.3355C47.6619 23.1794 48.8065 23.6535 50 23.6535C51.1935 23.6535 52.3381 23.1794 53.182 22.3355C54.0259 21.4916 54.5 20.347 54.5 19.1535V15.9335H45.5Z" fill="#F7B521"/>
<path d="M50 24.154C48.6744 24.1524 47.4036 23.6251 46.4662 22.6878C45.5289 21.7505 45.0016 20.4796 45 19.154V15.934C45 15.8014 45.0527 15.6742 45.1464 15.5805C45.2402 15.4867 45.3674 15.434 45.5 15.434H54.5C54.6326 15.434 54.7598 15.4867 54.8536 15.5805C54.9473 15.6742 55 15.8014 55 15.934V19.154C54.9984 20.4796 54.4711 21.7505 53.5338 22.6878C52.5964 23.6251 51.3256 24.1524 50 24.154ZM46 16.4335V19.1535C46 20.2144 46.4214 21.2318 47.1716 21.9819C47.9217 22.7321 48.9391 23.1535 50 23.1535C51.0609 23.1535 52.0783 22.7321 52.8284 21.9819C53.5786 21.2318 54 20.2144 54 19.1535V16.4335H46Z" fill="#2F3A5A"/>
<path d="M54.5 15.9335V19.1535C54.5 20.347 54.9741 21.4916 55.818 22.3355C56.6619 23.1794 57.8065 23.6535 59 23.6535C60.1935 23.6535 61.3381 23.1794 62.182 22.3355C63.0259 21.4916 63.5 20.347 63.5 19.1535V15.9335H54.5Z" fill="#3DBCE9"/>
<path d="M59 24.154C57.6744 24.1524 56.4036 23.6251 55.4662 22.6878C54.5289 21.7505 54.0016 20.4796 54 19.154V15.934C54 15.8014 54.0527 15.6742 54.1464 15.5805C54.2402 15.4867 54.3674 15.434 54.5 15.434H63.5C63.6326 15.434 63.7598 15.4867 63.8536 15.5805C63.9473 15.6742 64 15.8014 64 15.934V19.154C63.9985 20.4797 63.4713 21.7506 62.5339 22.6879C61.5966 23.6253 60.3256 24.1526 59 24.154V24.154ZM55 16.4335V19.1535C55 20.2144 55.4214 21.2318 56.1716 21.9819C56.9217 22.7321 57.9391 23.1535 59 23.1535C60.0609 23.1535 61.0783 22.7321 61.8284 21.9819C62.5786 21.2318 63 20.2144 63 19.1535V16.4335H55Z" fill="#2F3A5A"/>
<path d="M2.56049 53.4145H61.4395V56.452H2.56049V53.4145Z" fill="#D5D6DB"/>
<path d="M61.4395 56.95H2.56049C2.42788 56.95 2.3007 56.8973 2.20693 56.8036C2.11316 56.7098 2.06049 56.5826 2.06049 56.45V53.4125C2.06049 53.2799 2.11316 53.1527 2.20693 53.059C2.3007 52.9652 2.42788 52.9125 2.56049 52.9125H61.4395C61.5721 52.9125 61.6993 52.9652 61.793 53.059C61.8868 53.1527 61.9395 53.2799 61.9395 53.4125V56.45C61.9395 56.5826 61.8868 56.7098 61.793 56.8036C61.6993 56.8973 61.5721 56.95 61.4395 56.95ZM3.06049 55.95H60.9395V53.9125H3.06049V55.95Z" fill="#2F3A5A"/>
<path d="M14.9376 44.153C15.3846 44.153 15.7471 43.7906 15.7471 43.3435C15.7471 42.8964 15.3846 42.534 14.9376 42.534C14.4905 42.534 14.1281 42.8964 14.1281 43.3435C14.1281 43.7906 14.4905 44.153 14.9376 44.153Z" fill="#BD8D5A"/>
<path d="M45.241 31.8185L37.5555 46.8425H36.696L44.387 31.8185H45.241Z" fill="#F0F5F9"/>
<path d="M48.5394 31.8185L40.8539 46.8425H39.1404L46.8314 31.8185H48.5394Z" fill="#F0F5F9"/>
<path d="M55.1294 47.3415H30.8969C30.7643 47.3415 30.6371 47.2888 30.5434 47.1951C30.4496 47.1013 30.3969 46.9741 30.3969 46.8415V31.8175C30.3969 31.6849 30.4496 31.5577 30.5434 31.464C30.6371 31.3702 30.7643 31.3175 30.8969 31.3175H55.1294C55.262 31.3175 55.3892 31.3702 55.483 31.464C55.5767 31.5577 55.6294 31.6849 55.6294 31.8175V46.8415C55.6294 46.9741 55.5767 47.1013 55.483 47.1951C55.3892 47.2888 55.262 47.3415 55.1294 47.3415ZM31.3969 46.3415H54.6294V32.3175H31.3969V46.3415Z" fill="#2F3A5A"/>
</g>
<defs>
<clipPath id="clip0">
<rect width="64" height="64" fill="white"/>
</clipPath>
</defs>
</svg>
