<svg width="64" height="64" viewBox="0 0 64 64" fill="none" xmlns="http://www.w3.org/2000/svg">
<path d="M56.6705 0.5H7.694C5.73008 0.5 4.138 2.09208 4.138 4.056V57.4115C4.138 59.3754 5.73008 60.9675 7.694 60.9675H56.6705C58.6344 60.9675 60.2265 59.3754 60.2265 57.4115V4.056C60.2265 2.09208 58.6344 0.5 56.6705 0.5Z" fill="#D9E2E9"/>
<path d="M60.225 4.055V57.41C60.2254 57.8772 60.1338 58.3399 59.9553 58.7717C59.7769 59.2034 59.5151 59.5958 59.185 59.9264C58.8548 60.257 58.4628 60.5193 58.0313 60.6984C57.5998 60.8774 57.1372 60.9697 56.67 60.97H7.69501C6.75591 60.9691 5.85523 60.597 5.18931 59.9348C4.52338 59.2727 4.14622 58.3741 4.14001 57.435H52.535C53.4778 57.4347 54.3819 57.0601 55.0485 56.3935C55.7151 55.7268 56.0898 54.8228 56.09 53.88V0.500001H56.67C57.1369 0.499738 57.5993 0.591511 58.0308 0.770073C58.4622 0.948636 58.8542 1.21049 59.1844 1.54065C59.5145 1.87081 59.7764 2.26282 59.9549 2.69425C60.1335 3.12568 60.2253 3.58808 60.225 4.055V4.055Z" fill="#C1CDD3"/>
<path d="M56.6706 61.4675H7.69455C6.6192 61.4663 5.58823 61.0386 4.82784 60.2782C4.06745 59.5178 3.63974 58.4869 3.63855 57.4115V4.056C3.63974 2.98065 4.06745 1.94968 4.82784 1.18929C5.58823 0.428901 6.6192 0.00119109 7.69455 0L56.6711 0C57.7464 0.00119109 58.7774 0.428901 59.5378 1.18929C60.2981 1.94968 60.7259 2.98065 60.7271 4.056V57.4115C60.7259 58.4869 60.2981 59.518 59.5376 60.2784C58.7771 61.0388 57.746 61.4664 56.6706 61.4675V61.4675ZM7.69455 1C6.88425 1.00079 6.10735 1.323 5.53433 1.89593C4.96131 2.46885 4.63898 3.2457 4.63805 4.056V57.4115C4.63898 58.2217 4.96124 58.9985 5.53415 59.5714C6.10707 60.1443 6.88383 60.4666 7.69405 60.4675H56.6706C57.4808 60.4666 58.2575 60.1443 58.8304 59.5714C59.4034 58.9985 59.7256 58.2217 59.7266 57.4115V4.056C59.7256 3.24578 59.4034 2.46902 58.8304 1.8961C58.2575 1.32319 57.4808 1.00093 56.6706 1H7.69455Z" fill="#2F3A5A"/>
<path d="M56.671 0.5H7.694C6.75089 0.5 5.84641 0.874649 5.17953 1.54153C4.51265 2.20841 4.138 3.11289 4.138 4.056V13.0245H60.227V4.056C60.227 3.11289 59.8523 2.20841 59.1855 1.54153C58.5186 0.874649 57.6141 0.5 56.671 0.5V0.5Z" fill="#9297AB"/>
<path d="M60.225 4.055V13.025H56.09V4.055C56.0897 3.11224 55.7151 2.20816 55.0484 1.54153C54.3818 0.874894 53.4777 0.500266 52.535 0.500001H56.67C57.1369 0.499738 57.5993 0.591511 58.0307 0.770073C58.4622 0.948636 58.8542 1.21049 59.1843 1.54065C59.5145 1.87081 59.7763 2.26282 59.9549 2.69425C60.1335 3.12568 60.2252 3.58808 60.225 4.055V4.055Z" fill="#84879C"/>
<path d="M56.6706 61.4675H7.69455C6.6192 61.4663 5.58823 61.0386 4.82784 60.2782C4.06745 59.5178 3.63974 58.4869 3.63855 57.4115V4.056C3.63974 2.98065 4.06745 1.94968 4.82784 1.18929C5.58823 0.428901 6.6192 0.00119109 7.69455 0L56.6711 0C57.7464 0.00119109 58.7774 0.428901 59.5378 1.18929C60.2981 1.94968 60.7259 2.98065 60.7271 4.056V57.4115C60.7259 58.4869 60.2981 59.518 59.5376 60.2784C58.7771 61.0388 57.746 61.4664 56.6706 61.4675V61.4675ZM7.69455 1C6.88425 1.00079 6.10735 1.323 5.53433 1.89593C4.96131 2.46885 4.63898 3.2457 4.63805 4.056V57.4115C4.63898 58.2217 4.96124 58.9985 5.53415 59.5714C6.10707 60.1443 6.88383 60.4666 7.69405 60.4675H56.6706C57.4808 60.4666 58.2575 60.1443 58.8304 59.5714C59.4034 58.9985 59.7256 58.2217 59.7266 57.4115V4.056C59.7256 3.24578 59.4034 2.46902 58.8304 1.8961C58.2575 1.32319 57.4808 1.00093 56.6706 1H7.69455Z" fill="#2F3A5A"/>
<path d="M3.77301 12.5245H60.2265V13.5245H3.77301V12.5245Z" fill="#2F3A5A"/>
<path d="M52.3043 8.07849C53.1936 7.1892 53.1936 5.74738 52.3043 4.8581C51.415 3.96881 49.9732 3.96881 49.0839 4.8581C48.1946 5.74738 48.1946 7.1892 49.0839 8.07849C49.9732 8.96777 51.415 8.96777 52.3043 8.07849Z" fill="#9297AB"/>
<path d="M50.7 9.23949C50.2434 9.23942 49.7939 9.12674 49.3912 8.91144C48.9886 8.69614 48.6453 8.38486 48.3916 8.00518C48.138 7.62549 47.982 7.18912 47.9373 6.73472C47.8926 6.28031 47.9607 5.8219 48.1355 5.40009C48.3103 4.97827 48.5864 4.60608 48.9394 4.31647C49.2924 4.02686 49.7113 3.82877 50.1592 3.73976C50.607 3.65075 51.0699 3.67356 51.5068 3.80617C51.9437 3.93877 52.3412 4.17708 52.664 4.49999C53.0525 4.88826 53.3171 5.38304 53.4243 5.92173C53.5315 6.46042 53.4765 7.0188 53.2662 7.52621C53.0559 8.03362 52.6999 8.46725 52.2431 8.77222C51.7863 9.0772 51.2493 9.23982 50.7 9.23949V9.23949ZM50.7 4.68949C50.3485 4.68927 50.0049 4.79331 49.7125 4.98847C49.4202 5.18363 49.1923 5.46112 49.0577 5.78584C48.9232 6.11055 48.8879 6.46789 48.9565 6.81263C49.0251 7.15737 49.1944 7.47401 49.443 7.72249C49.7816 8.0456 50.2317 8.22587 50.6998 8.22587C51.1678 8.22587 51.6179 8.0456 51.9565 7.72249C52.206 7.47417 52.376 7.15736 52.4451 6.81224C52.5142 6.46712 52.4792 6.10925 52.3446 5.78404C52.21 5.45884 51.9818 5.18094 51.689 4.98562C51.3962 4.79031 51.052 4.68637 50.7 4.68699V4.68949Z" fill="#2F3A5A"/>
<path d="M52.385 4.7785L49.0155 8.1485Z" fill="#84879C"/>
<path d="M48.6562 7.79922L52.0255 4.43002L52.7325 5.13702L49.3633 8.50623L48.6562 7.79922Z" fill="#2F3A5A"/>
<path d="M41.8123 8.07754C42.7016 7.18825 42.7016 5.74644 41.8123 4.85715C40.923 3.96787 39.4812 3.96787 38.5919 4.85715C37.7026 5.74644 37.7026 7.18825 38.5919 8.07754C39.4812 8.96682 40.923 8.96682 41.8123 8.07754Z" fill="#9297AB"/>
<path d="M40.207 9.24049C39.5646 9.24044 38.942 9.01763 38.4454 8.61003C37.9488 8.20243 37.6089 7.63525 37.4836 7.00514C37.3583 6.37502 37.4553 5.72095 37.7582 5.15436C38.061 4.58777 38.551 4.14373 39.1446 3.89787C39.7381 3.65202 40.3985 3.61957 41.0133 3.80606C41.6281 3.99255 42.1592 4.38643 42.5162 4.9206C42.8731 5.45477 43.0338 6.09618 42.9709 6.73555C42.908 7.37491 42.6253 7.97268 42.171 8.42699C41.9138 8.68577 41.6077 8.89093 41.2705 9.03057C40.9334 9.17021 40.5719 9.24156 40.207 9.24049ZM40.207 4.68599C39.8555 4.68605 39.5119 4.7903 39.2197 4.98559C38.9275 5.18088 38.6997 5.45842 38.5651 5.78315C38.4306 6.10787 38.3954 6.46519 38.4639 6.80993C38.5324 7.15468 38.7016 7.47138 38.95 7.71999C39.2886 8.04322 39.7387 8.22357 40.2068 8.22357C40.6749 8.22357 41.125 8.04322 41.4635 7.71999C41.7122 7.47147 41.8816 7.15476 41.9503 6.80993C42.0189 6.4651 41.9837 6.10766 41.8491 5.78284C41.7146 5.45802 41.4867 5.18042 41.1943 4.98517C40.9019 4.78992 40.5581 4.68581 40.2065 4.68599H40.207Z" fill="#2F3A5A"/>
<path d="M41.892 4.7785L38.5225 8.1485Z" fill="#84879C"/>
<path d="M38.1641 7.79828L41.5333 4.42907L42.2403 5.13607L38.8711 8.50528L38.1641 7.79828Z" fill="#2F3A5A"/>
<path d="M9.17499 3.96951H21.622V9.54551H9.17499V3.96951Z" fill="#B9DDFC"/>
<path d="M21.6225 10.045H9.17554C9.04293 10.045 8.91575 9.99233 8.82198 9.89856C8.72822 9.8048 8.67554 9.67762 8.67554 9.54501V3.96951C8.67554 3.8369 8.72822 3.70973 8.82198 3.61596C8.91575 3.52219 9.04293 3.46951 9.17554 3.46951H21.6225C21.7552 3.46951 21.8823 3.52219 21.9761 3.61596C22.0699 3.70973 22.1225 3.8369 22.1225 3.96951V9.54501C22.1225 9.67762 22.0699 9.8048 21.9761 9.89856C21.8823 9.99233 21.7552 10.045 21.6225 10.045ZM9.67554 9.04501H21.1225V4.46951H9.67554V9.04501Z" fill="#2F3A5A"/>
<path d="M32.1825 48.3465C39.093 48.3465 44.695 42.7445 44.695 35.834C44.695 28.9235 39.093 23.3215 32.1825 23.3215C25.2721 23.3215 19.67 28.9235 19.67 35.834C19.67 42.7445 25.2721 48.3465 32.1825 48.3465Z" fill="#9297AB"/>
<path d="M32.1825 48.847C29.6089 48.847 27.0931 48.0838 24.9532 46.654C22.8133 45.2242 21.1455 43.192 20.1606 40.8143C19.1757 38.4366 18.9179 35.8202 19.42 33.2961C19.922 30.7719 21.1613 28.4533 22.9811 26.6334C24.8009 24.8136 27.1194 23.5742 29.6436 23.0721C32.1677 22.5699 34.7841 22.8276 37.1618 23.8124C39.5395 24.7972 41.5719 26.4649 43.0017 28.6048C44.4316 30.7446 45.1949 33.2604 45.195 35.834C45.1912 39.284 43.819 42.5916 41.3795 45.0312C38.94 47.4707 35.6325 48.843 32.1825 48.847V48.847ZM32.1825 23.8215C29.8066 23.8215 27.4841 24.526 25.5087 25.846C23.5333 27.1659 21.9936 29.042 21.0844 31.237C20.1752 33.432 19.9373 35.8473 20.4008 38.1775C20.8643 40.5077 22.0084 42.6481 23.6884 44.3281C25.3683 46.0081 27.5088 47.1522 29.839 47.6157C32.1692 48.0792 34.5845 47.8413 36.7795 46.9321C38.9745 46.0229 40.8506 44.4832 42.1705 42.5078C43.4905 40.5323 44.195 38.2098 44.195 35.834C44.1914 32.6492 42.9247 29.5958 40.6727 27.3438C38.4207 25.0918 35.3673 23.8251 32.1825 23.8215V23.8215Z" fill="#2F3A5A"/>
<path d="M32.1825 45.6385C37.5974 45.6385 41.987 41.2489 41.987 35.834C41.987 30.4191 37.5974 26.0295 32.1825 26.0295C26.7676 26.0295 22.378 30.4191 22.378 35.834C22.378 41.2489 26.7676 45.6385 32.1825 45.6385Z" fill="#D9E2E9"/>
<path d="M22.393 36.137C22.468 38.6833 23.5323 41.1002 25.36 42.8748C27.1876 44.6494 29.6348 45.642 32.1823 45.642C34.7297 45.642 37.1769 44.6494 39.0046 42.8748C40.8322 41.1002 41.8965 38.6833 41.9715 36.137H22.393Z" fill="#3DBCE9"/>
<path d="M32.1825 46.1385C30.1445 46.1385 28.1522 45.5341 26.4576 44.4019C24.7631 43.2696 23.4423 41.6602 22.6624 39.7773C21.8825 37.8944 21.6784 35.8226 22.076 33.8237C22.4736 31.8248 23.455 29.9887 24.8961 28.5476C26.3372 27.1065 28.1733 26.1251 30.1722 25.7275C32.1711 25.3299 34.243 25.5339 36.1259 26.3139C38.0088 27.0938 39.6181 28.4145 40.7504 30.1091C41.8827 31.8037 42.487 33.7959 42.487 35.834C42.484 38.566 41.3973 41.1852 39.4655 43.117C37.5337 45.0488 34.9145 46.1354 32.1825 46.1385V46.1385ZM32.1825 26.5295C30.3422 26.5295 28.5433 27.0752 27.0132 28.0976C25.4831 29.12 24.2905 30.5731 23.5863 32.2733C22.882 33.9735 22.6978 35.8443 23.0568 37.6492C23.4158 39.4541 24.302 41.112 25.6032 42.4133C26.9045 43.7145 28.5624 44.6007 30.3673 44.9597C32.1722 45.3187 34.043 45.1345 35.7432 44.4302C37.4434 43.726 38.8965 42.5334 39.9189 41.0033C40.9413 39.4732 41.487 37.6742 41.487 35.834C41.4842 33.3671 40.503 31.0021 38.7587 29.2578C37.0144 27.5134 34.6494 26.5323 32.1825 26.5295V26.5295Z" fill="#2F3A5A"/>
<path d="M51.6155 60.9675H56.517V63.0645H51.6155V60.9675Z" fill="#D9E2E9"/>
<path d="M56.5169 63.5645H51.6169C51.4843 63.5645 51.3572 63.5118 51.2634 63.4181C51.1696 63.3243 51.1169 63.1971 51.1169 63.0645V60.9675C51.1169 60.8349 51.1696 60.7077 51.2634 60.6139C51.3572 60.5202 51.4843 60.4675 51.6169 60.4675H56.5169C56.6495 60.4675 56.7767 60.5202 56.8705 60.6139C56.9643 60.7077 57.0169 60.8349 57.0169 60.9675V63.0645C57.0169 63.1971 56.9643 63.3243 56.8705 63.4181C56.7767 63.5118 56.6495 63.5645 56.5169 63.5645ZM52.1169 62.5645H56.0169V61.4675H52.1169V62.5645Z" fill="#2F3A5A"/>
<path d="M7.84802 60.9675H12.7495V63.0645H7.84802V60.9675Z" fill="#D9E2E9"/>
<path d="M12.75 63.5645H7.85004C7.71743 63.5645 7.59025 63.5118 7.49648 63.4181C7.40272 63.3243 7.35004 63.1971 7.35004 63.0645V60.9675C7.35004 60.8349 7.40272 60.7077 7.49648 60.6139C7.59025 60.5202 7.71743 60.4675 7.85004 60.4675H12.75C12.8826 60.4675 13.0098 60.5202 13.1036 60.6139C13.1974 60.7077 13.25 60.8349 13.25 60.9675V63.0645C13.25 63.1971 13.1974 63.3243 13.1036 63.4181C13.0098 63.5118 12.8826 63.5645 12.75 63.5645ZM8.35004 62.5645H12.25V61.4675H8.35004V62.5645Z" fill="#2F3A5A"/>
</svg>
