<svg width="64" height="64" viewBox="0 0 64 64" fill="none" xmlns="http://www.w3.org/2000/svg">
<path d="M32 62.8267C49.0251 62.8267 62.8267 49.0251 62.8267 32C62.8267 14.9749 49.0251 1.17334 32 1.17334C14.9749 1.17334 1.17334 14.9749 1.17334 32C1.17334 49.0251 14.9749 62.8267 32 62.8267Z" fill="#F6B756"/>
<path d="M32 56.2667C45.4021 56.2667 56.2667 45.4021 56.2667 32C56.2667 18.5979 45.4021 7.73334 32 7.73334C18.5979 7.73334 7.73334 18.5979 7.73334 32C7.73334 45.4021 18.5979 56.2667 32 56.2667Z" fill="#FAC77D"/>
<path d="M48.0866 34.6667C47.3794 34.6667 46.7011 34.3857 46.201 33.8856C45.7009 33.3855 45.42 32.7072 45.42 32C45.4164 28.4437 44.0008 25.0344 41.4842 22.5216C38.9677 20.0088 35.5563 18.5982 32 18.6C31.2927 18.6 30.6145 18.319 30.1144 17.8189C29.6143 17.3189 29.3333 16.6406 29.3333 15.9333C29.3333 15.2261 29.6143 14.5478 30.1144 14.0477C30.6145 13.5476 31.2927 13.2667 32 13.2667C36.9698 13.2719 41.7351 15.2463 45.2524 18.7573C48.7698 22.2684 50.7525 27.0302 50.7666 32C50.7667 32.3513 50.6972 32.6992 50.5624 33.0236C50.4275 33.348 50.2299 33.6425 49.9809 33.8903C49.7319 34.1381 49.4363 34.3343 49.1112 34.4675C48.7862 34.6007 48.438 34.6684 48.0866 34.6667Z" fill="#FFD69E"/>
<path d="M32 50.7667C27.0244 50.7614 22.2541 48.7825 18.7358 45.2642C15.2175 41.7459 13.2386 36.9756 13.2333 32C13.2333 31.2928 13.5143 30.6145 14.0144 30.1144C14.5145 29.6143 15.1928 29.3333 15.9 29.3333C16.6072 29.3333 17.2855 29.6143 17.7856 30.1144C18.2857 30.6145 18.5667 31.2928 18.5667 32C18.5684 33.762 18.9173 35.5064 19.5934 37.1336C20.2696 38.7607 21.2596 40.2387 22.5071 41.4831C23.7546 42.7275 25.2351 43.7139 26.8639 44.386C28.4927 45.0581 30.238 45.4026 32 45.4C32.7117 45.4 33.3942 45.6827 33.8974 46.1859C34.4006 46.6891 34.6833 47.3717 34.6833 48.0833C34.6833 48.795 34.4006 49.4775 33.8974 49.9807C33.3942 50.484 32.7117 50.7667 32 50.7667Z" fill="#FFD69E"/>
<path d="M34.2267 30.6667H29.7733C27.7733 30.6667 26.1 29.2 26.1 27.3867C26.1 25.5733 27.7467 24.1067 29.7733 24.1067H39.1067V21.5067H33.3333V17.5733H30.6667V21.5067H29.7733C26.3 21.5067 23.4733 24.1733 23.4733 27.4067C23.4733 30.64 26.3 33.3333 29.7733 33.3333H34.2267C36.2267 33.3333 37.9 34.8 37.9 36.6133C37.9 38.4267 36.2533 39.8933 34.2267 39.8933H24.86V42.5133H30.6667V46.4467H33.3333V42.5133H34.26C37.7333 42.5133 40.56 39.8467 40.56 36.6133C40.56 33.38 37.7 30.6667 34.2267 30.6667Z" fill="#F3F4F5"/>
<path d="M32 56.9267C27.07 56.9267 22.2506 55.4648 18.1515 52.7258C14.0523 49.9868 10.8574 46.0938 8.97074 41.539C7.0841 36.9843 6.59047 31.9724 7.55227 27.1371C8.51407 22.3018 10.8881 17.8603 14.3742 14.3742C17.8602 10.8881 22.3017 8.5141 27.137 7.5523C31.9723 6.5905 36.9842 7.08413 41.539 8.97077C46.0938 10.8574 49.9868 14.0523 52.7257 18.1515C55.4647 22.2507 56.9266 27.07 56.9266 32C56.9178 38.6083 54.2888 44.9433 49.6161 49.6161C44.9433 54.2888 38.6082 56.9179 32 56.9267ZM32 8.38668C27.3297 8.38668 22.7643 9.77158 18.8811 12.3662C14.9979 14.9609 11.9713 18.6488 10.1841 22.9636C8.39687 27.2784 7.92925 32.0262 8.84037 36.6067C9.7515 41.1873 12.0004 45.3948 15.3028 48.6972C18.6052 51.9995 22.8127 54.2485 27.3932 55.1596C31.9738 56.0708 36.7216 55.6031 41.0364 53.8159C45.3512 52.0287 49.0391 49.0021 51.6338 45.1189C54.2284 41.2357 55.6133 36.6703 55.6133 32C55.6063 25.7395 53.1162 19.7375 48.6893 15.3107C44.2625 10.8838 38.2605 8.39374 32 8.38668Z" fill="#39426A"/>
<path d="M32 63.48C25.7739 63.48 19.6875 61.6337 14.5107 58.1747C9.33382 54.7156 5.29895 49.7991 2.91631 44.0469C0.533659 38.2947 -0.0897496 31.9651 1.12491 25.8586C2.33958 19.752 5.33776 14.1428 9.74031 9.74028C14.1429 5.33772 19.7521 2.33955 25.8586 1.12488C31.9651 -0.0897802 38.2947 0.533629 44.0469 2.91628C49.7991 5.29892 54.7156 9.33379 58.1747 14.5107C61.6338 19.6875 63.48 25.7738 63.48 32C63.4712 40.3463 60.1517 48.3482 54.25 54.25C48.3483 60.1517 40.3463 63.4712 32 63.48ZM32 1.82667C26.0323 1.82667 20.1986 3.5963 15.2366 6.91179C10.2746 10.2273 6.40726 14.9397 4.12351 20.4532C1.83976 25.9666 1.24223 32.0335 2.40647 37.8865C3.57072 43.7396 6.44445 49.116 10.6643 53.3358C14.8841 57.5556 20.2605 60.4293 26.1135 61.5936C31.9666 62.7578 38.0334 62.1603 43.5469 59.8765C49.0603 57.5928 53.7728 53.7254 57.0882 48.7634C60.4037 43.8014 62.1734 37.9677 62.1734 32C62.1628 24.0008 58.9804 16.3322 53.3241 10.6759C47.6678 5.01962 39.9993 1.83725 32 1.82667Z" fill="#39426A"/>
<path d="M33.3333 47.0867H30.6667C30.4899 47.0867 30.3203 47.0164 30.1953 46.8914C30.0702 46.7664 30 46.5968 30 46.42V43.1533H24.86C24.6832 43.1533 24.5136 43.0831 24.3886 42.9581C24.2636 42.8331 24.1933 42.6635 24.1933 42.4867V39.8733C24.1933 39.6965 24.2636 39.527 24.3886 39.4019C24.5136 39.2769 24.6832 39.2067 24.86 39.2067H34.2267C35.8933 39.2067 37.2467 38.0333 37.2467 36.5867C37.2467 35.14 35.8933 34 34.2267 34H29.7733C25.94 34 22.82 31.06 22.82 27.44C22.82 23.82 25.94 20.88 29.7733 20.88H30V17.5733C30 17.3965 30.0702 17.227 30.1953 17.1019C30.3203 16.9769 30.4899 16.9067 30.6667 16.9067H33.3333C33.5102 16.9067 33.6797 16.9769 33.8047 17.1019C33.9298 17.227 34 17.3965 34 17.5733V20.8467H39.16C39.3368 20.8467 39.5064 20.9169 39.6314 21.0419C39.7564 21.167 39.8267 21.3365 39.8267 21.5133V24.1333C39.8267 24.3102 39.7564 24.4797 39.6314 24.6047C39.5064 24.7298 39.3368 24.8 39.16 24.8H29.8267C28.16 24.8 26.8067 25.9733 26.8067 27.42C26.8067 28.8667 28.14 30.0467 29.8267 30.0467H34.28C38.1133 30.0467 41.2333 32.9867 41.2333 36.6067C41.2333 40.2267 38.1133 43.1667 34.28 43.1667H34.0067V46.44C34.0014 46.6145 33.928 46.78 33.8021 46.9009C33.6762 47.0218 33.5079 47.0885 33.3333 47.0867ZM31.3333 45.7533H32.6667V42.4933C32.6667 42.3165 32.7369 42.147 32.8619 42.0219C32.987 41.8969 33.1565 41.8267 33.3333 41.8267H34.26C37.3733 41.8267 39.9067 39.4733 39.9067 36.58C39.9067 33.6867 37.3333 31.3333 34.2267 31.3333H29.7733C27.3867 31.3333 25.44 29.5667 25.44 27.3933C25.44 25.22 27.3867 23.46 29.7733 23.46H38.44V22.1267H33.3333C33.1565 22.1267 32.987 22.0564 32.8619 21.9314C32.7369 21.8064 32.6667 21.6368 32.6667 21.46V18.2267H31.3333V21.5067C31.3333 21.6835 31.2631 21.8531 31.1381 21.9781C31.0131 22.1031 30.8435 22.1733 30.6667 22.1733H29.7733C26.66 22.1733 24.1267 24.5267 24.1267 27.42C24.1267 30.3133 26.6667 32.6667 29.7733 32.6667H34.2267C36.6133 32.6667 38.56 34.4333 38.56 36.6067C38.56 38.78 36.6133 40.54 34.2267 40.54H25.52V41.8733H30.6667C30.8435 41.8733 31.0131 41.9436 31.1381 42.0686C31.2631 42.1936 31.3333 42.3632 31.3333 42.54V45.7533Z" fill="#39426A"/>
</svg>
