<svg width="64" height="64" viewBox="0 0 64 64" fill="none" xmlns="http://www.w3.org/2000/svg">
<g clip-path="url(#clip0)">
<path d="M54.573 17.879L46.2635 9.396L39.0375 7.763C38.8191 8.40468 38.4885 9.00246 38.061 9.5285C37.3526 10.4061 36.4611 11.1185 35.4488 11.6157C34.4364 12.1129 33.3277 12.383 32.2001 12.4071C31.0725 12.4312 29.9532 12.2087 28.9205 11.7552C27.8879 11.3017 26.9667 10.6281 26.2215 9.7815C25.7124 9.1849 25.3155 8.50103 25.05 7.763L19.1905 9.322L8.70001 17.882L14.805 27.957L18.435 26.5L17.835 35.27H46.289L44.6565 25.12L48.6 26.5805L54.573 17.879Z" fill="#EF5361"/>
<path d="M46.289 35.771H17.8335C17.7649 35.7712 17.697 35.7572 17.634 35.73C17.571 35.7027 17.5143 35.6628 17.4674 35.6127C17.4205 35.5627 17.3844 35.5034 17.3613 35.4388C17.3383 35.3742 17.3288 35.3055 17.3335 35.237L17.881 27.2615L14.9895 28.4215C14.8795 28.4657 14.7573 28.4693 14.6449 28.4318C14.5324 28.3942 14.4369 28.3179 14.3755 28.2165L8.27101 18.141C8.20859 18.0378 8.18555 17.9156 8.20613 17.7968C8.22671 17.678 8.28953 17.5706 8.38301 17.4945L18.8745 8.9345C18.9295 8.88962 18.9934 8.85705 19.062 8.839L24.9195 7.2795C25.0432 7.24665 25.1747 7.26245 25.2871 7.32365C25.3994 7.38485 25.484 7.48679 25.5235 7.6085C25.7685 8.28289 26.1332 8.90756 26.6 9.4525C27.3021 10.249 28.1705 10.8816 29.144 11.3056C30.1174 11.7295 31.1721 11.9345 32.2335 11.906C33.2818 11.8867 34.3129 11.6358 35.2528 11.1711C36.1927 10.7065 37.0181 10.0397 37.67 9.2185C38.0608 8.7389 38.3635 8.1938 38.564 7.6085C38.6025 7.48982 38.6839 7.38982 38.7923 7.32811C38.9008 7.26641 39.0283 7.24746 39.15 7.275L46.376 8.9085C46.4699 8.92976 46.5557 8.97768 46.623 9.0465L54.93 17.529C55.011 17.6118 55.0608 17.7203 55.0707 17.8357C55.0807 17.9512 55.0502 18.0665 54.9845 18.162L49.0105 26.862C48.9475 26.9537 48.8557 27.0218 48.7497 27.0555C48.6436 27.0892 48.5294 27.0866 48.425 27.048L45.286 25.887L46.7825 35.19C46.794 35.2615 46.7899 35.3346 46.7704 35.4042C46.7509 35.4739 46.7165 35.5386 46.6695 35.5937C46.6226 35.6488 46.5643 35.693 46.4986 35.7234C46.4329 35.7538 46.3614 35.7695 46.289 35.7695V35.771ZM18.369 34.771H45.7L44.163 25.2C44.1488 25.1136 44.1575 25.0251 44.1883 24.9431C44.219 24.8612 44.2708 24.7888 44.3383 24.7331C44.4058 24.6774 44.4868 24.6405 44.573 24.6259C44.6593 24.6113 44.7479 24.6196 44.83 24.65L48.4065 25.973L53.9275 17.935L46.01 9.85L39.3525 8.3465C39.1203 8.88155 38.8176 9.38316 38.4525 9.838C37.7098 10.7748 36.769 11.5356 35.6976 12.066C34.6262 12.5965 33.4508 12.8833 32.2555 12.906C31.0466 12.9422 29.8447 12.7103 28.736 12.2269C27.6274 11.7435 26.6396 11.0205 25.8435 10.11C25.3951 9.58224 25.0246 8.99291 24.7435 8.36L19.423 9.7775L9.35001 17.9945L15.0115 27.335L18.249 26.035C18.3277 26.0034 18.4132 25.9923 18.4973 26.0029C18.5815 26.0134 18.6616 26.0451 18.7301 26.0951C18.7986 26.1451 18.8533 26.2118 18.8889 26.2887C18.9246 26.3656 18.9401 26.4504 18.934 26.535L18.369 34.771Z" fill="#2F3A5A"/>
<path d="M46.3 35.319C43.9255 35.319 41.117 26.862 41.526 18.787C41.8855 11.7035 43.855 8.84999 43.855 8.84999L39.0375 7.76099C39.0375 7.76099 37.406 11.367 37.406 17.869H26.6795C26.6795 11.369 25.048 7.76099 25.048 7.76099L20.4905 8.97399C20.4905 8.97399 21.6475 11.8295 22.204 18.4135C22.751 24.887 20.159 35.317 17.784 35.317C16.352 40.6905 16.5025 53.281 16.63 61.3135H30.575V51.693C30.644 46.61 32.0425 43.716 32.0425 43.716C33.0869 46.2423 33.587 48.9604 33.51 51.693V61.315H47.455C47.5825 53.2825 47.733 40.6925 46.3 35.319V35.319Z" fill="#D9E2E9"/>
<path d="M47.455 61.815H33.5105C33.3779 61.815 33.2507 61.7623 33.157 61.6686C33.0632 61.5748 33.0105 61.4476 33.0105 61.315V51.693C33.046 49.4702 32.7216 47.2562 32.05 45.137C31.4114 47.2665 31.083 49.4769 31.075 51.7V61.315C31.075 61.4476 31.0223 61.5748 30.9286 61.6686C30.8348 61.7623 30.7076 61.815 30.575 61.815H16.6305C16.4993 61.815 16.3733 61.7634 16.2798 61.6714C16.1862 61.5794 16.1326 61.4542 16.1305 61.323C16.016 54.154 15.804 40.81 17.3015 35.19C17.3298 35.0835 17.3925 34.9894 17.4799 34.9222C17.5672 34.855 17.6743 34.8186 17.7845 34.8185C18.0288 34.7716 18.2463 34.6339 18.393 34.433C20.218 32.447 22.1905 24.183 21.7065 18.4565C21.164 12.05 20.0385 9.19151 20.027 9.16301C20.0005 9.09729 19.9884 9.02669 19.9912 8.9559C19.9941 8.88511 20.012 8.81574 20.0437 8.75239C20.0755 8.68904 20.1203 8.63315 20.1752 8.58844C20.2302 8.54372 20.294 8.51119 20.3625 8.49301L24.9195 7.27951C25.0339 7.24909 25.1554 7.26023 25.2623 7.31096C25.3692 7.36168 25.4547 7.44869 25.5035 7.55651C25.57 7.70351 27.0975 11.151 27.1765 17.3705H36.9085C36.9875 11.151 38.5155 7.70351 38.582 7.55651C38.6296 7.45117 38.7121 7.36556 38.8157 7.31424C38.9193 7.26292 39.0374 7.24905 39.15 7.27501L43.9675 8.36401C44.0472 8.38218 44.1212 8.41961 44.1831 8.47302C44.245 8.52644 44.2928 8.5942 44.3224 8.67039C44.352 8.74658 44.3625 8.82886 44.3529 8.91003C44.3433 8.99121 44.314 9.0688 44.2675 9.13601C44.2495 9.16251 42.3725 11.9945 42.0275 18.8125C41.6905 25.465 43.5735 32.3285 45.4735 34.327C45.6761 34.5917 45.9731 34.768 46.3025 34.819C46.4127 34.8191 46.5198 34.8555 46.6071 34.9227C46.6945 34.9899 46.7572 35.084 46.7855 35.1905C48.282 40.806 48.07 54.153 47.9565 61.3235C47.9543 61.4549 47.9004 61.5801 47.8066 61.6721C47.7127 61.7641 47.5864 61.8154 47.455 61.815V61.815ZM34.01 60.815H46.963C47.075 53.7295 47.239 41.296 45.899 35.765C45.4538 35.626 45.0557 35.3664 44.749 35.015C42.666 32.824 40.6745 25.77 41.029 18.7605C41.302 13.38 42.487 10.39 43.091 9.19051L39.3465 8.34401C38.952 9.41501 37.9075 12.736 37.9075 17.87C37.9075 18.0026 37.8548 18.1298 37.7611 18.2236C37.6673 18.3173 37.5401 18.37 37.4075 18.37H26.679C26.5464 18.37 26.4192 18.3173 26.3255 18.2236C26.2317 18.1298 26.179 18.0026 26.179 17.87C26.179 12.76 25.145 9.44701 24.746 8.35951L21.1405 9.31951C21.497 10.428 22.274 13.303 22.702 18.372C23.176 23.981 21.3055 32.7405 19.129 35.1095C18.8783 35.4044 18.5537 35.6275 18.1885 35.756C16.845 41.286 17.0105 53.726 17.1225 60.8145H30.075V51.693C30.145 46.55 31.533 43.621 31.5925 43.5C31.6334 43.4154 31.6973 43.344 31.7769 43.294C31.8565 43.2441 31.9485 43.2175 32.0425 43.2175C32.1366 43.2176 32.2287 43.2443 32.3083 43.2945C32.3879 43.3446 32.4518 43.4162 32.4925 43.501C33.5748 46.0956 34.0919 48.891 34.0095 51.701L34.01 60.815Z" fill="#2F3A5A"/>
<path d="M32.0067 6.656C13.3997 6.656 0.558696 3.2195 0.367196 3.167C0.239295 3.13192 0.130567 3.04748 0.0649288 2.93224C-0.000708893 2.81699 -0.0178789 2.6804 0.017196 2.5525C0.0522708 2.4246 0.136717 2.31587 0.251959 2.25023C0.3672 2.18459 0.503795 2.16742 0.631696 2.2025C0.917196 2.2805 29.5722 9.94 63.3877 2.1975C63.5158 2.17079 63.6493 2.19539 63.7595 2.266C63.8697 2.33662 63.9478 2.44764 63.9771 2.5752C64.0063 2.70277 63.9844 2.83673 63.916 2.94831C63.8476 3.05989 63.7382 3.1402 63.6112 3.172C53.2399 5.51243 42.6387 6.68108 32.0067 6.656V6.656Z" fill="#2F3A5A"/>
<path d="M40.217 4.3735H42.0195V9.2835H40.217V4.3735Z" fill="#9297AB"/>
<path d="M42.0195 9.7835H40.217C40.0844 9.7835 39.9573 9.73083 39.8635 9.63706C39.7697 9.54329 39.717 9.41611 39.717 9.2835V4.3735C39.717 4.2409 39.7697 4.11372 39.8635 4.01995C39.9573 3.92618 40.0844 3.8735 40.217 3.8735H42.0195C42.1522 3.8735 42.2793 3.92618 42.3731 4.01995C42.4669 4.11372 42.5195 4.2409 42.5195 4.3735V9.2835C42.5195 9.41611 42.4669 9.54329 42.3731 9.63706C42.2793 9.73083 42.1522 9.7835 42.0195 9.7835ZM40.717 8.7835H41.5195V4.8735H40.717V8.7835Z" fill="#2F3A5A"/>
<path d="M22.204 4.3735H24.0065V9.2835H22.204V4.3735Z" fill="#9297AB"/>
<path d="M24.007 9.7835H22.204C22.0714 9.7835 21.9442 9.73083 21.8504 9.63706C21.7567 9.54329 21.704 9.41611 21.704 9.2835V4.3735C21.704 4.2409 21.7567 4.11372 21.8504 4.01995C21.9442 3.92618 22.0714 3.8735 22.204 3.8735H24.0065C24.1391 3.8735 24.2663 3.92618 24.36 4.01995C24.4538 4.11372 24.5065 4.2409 24.5065 4.3735V9.2835C24.5065 9.41603 24.4539 9.54313 24.3602 9.63688C24.2665 9.73064 24.1395 9.78337 24.007 9.7835V9.7835ZM22.7045 8.7835H23.507V4.8735H22.704L22.7045 8.7835Z" fill="#2F3A5A"/>
</g>
<defs>
<clipPath id="clip0">
<rect width="64" height="64" fill="white"/>
</clipPath>
</defs>
</svg>
